<?xml version="1.0" standalone="no"?>
<!DOCTYPE svg PUBLIC "-//W3C//DTD SVG 20010904//EN"
 "http://www.w3.org/TR/2001/REC-SVG-20010904/DTD/svg10.dtd">
<svg version="1.0" xmlns="http://www.w3.org/2000/svg"
 width="700.000000pt" height="700.000000pt" viewBox="0 0 700.000000 700.000000"
 preserveAspectRatio="xMidYMid meet">
<metadata>
Created by potrace 1.14, written by Peter Selinger 2001-2017
</metadata>
<g transform="translate(0.000000,700.000000) scale(0.100000,-0.100000)"
fill="#000000" stroke="none">
<path d="M2270 6470 l0 -530 -82 -1 c-46 -1 -338 -1 -650 0 l-568 1 0 -345 0
-345 263 -1 c271 -1 298 -2 357 -21 103 -32 168 -97 204 -203 15 -43 17 -117
17 -654 0 -460 3 -607 12 -613 9 -6 9 -8 0 -8 -10 0 -13 -178 -13 -852 1 -528
-3 -866 -9 -886 -25 -83 -89 -144 -165 -158 -21 -4 -148 -7 -283 -7 -134 0
-246 -4 -249 -8 -4 -7 -60 -319 -78 -439 -3 -19 -7 -44 -10 -55 -2 -11 -7 -42
-11 -70 -5 -27 -9 -52 -10 -55 -2 -8 -19 -124 -20 -134 0 -6 249 -10 625 -12
344 -1 635 -2 648 -3 l22 -1 0 -535 0 -535 324 0 325 0 0 483 c0 265 0 503 1
529 l0 47 255 -2 255 -2 0 -527 0 -528 325 0 325 0 2 537 3 537 35 2 c77 3
246 15 265 19 11 2 49 7 85 10 36 3 74 8 85 10 11 2 43 7 70 10 305 36 703
185 907 339 256 195 425 502 474 862 3 27 8 58 11 69 12 53 11 367 -2 450 -36
251 -112 415 -262 568 -130 133 -338 258 -514 308 -24 7 -46 13 -49 14 -3 1
-18 5 -35 9 -60 15 -60 16 -19 40 246 140 408 338 474 579 44 163 54 384 24
567 -11 68 -46 205 -56 218 -6 6 -8 12 -5 12 9 0 -53 122 -98 191 -54 83 -158
189 -249 252 -38 27 -124 75 -190 107 -189 91 -355 142 -606 184 -118 20 -149
25 -227 32 -37 4 -75 8 -83 10 -8 1 -21 3 -27 3 -10 1 -13 114 -13 531 l0 530
-325 0 -325 0 0 -515 0 -515 -122 -1 c-68 0 -183 -2 -255 -4 -100 -3 -133 -1
-134 8 0 6 0 240 0 520 l0 507 -325 0 -324 0 0 -530z m1350 -1275 c189 -22
290 -43 416 -90 142 -54 229 -116 297 -212 83 -118 108 -208 103 -363 -7 -203
-69 -308 -261 -437 -81 -55 -167 -87 -326 -122 -199 -44 -274 -52 -611 -58
l-308 -6 0 645 c0 355 2 647 4 649 11 11 581 5 686 -6z m150 -1939 c19 -3 60
-8 90 -11 49 -6 133 -21 240 -44 71 -16 227 -73 305 -112 246 -123 377 -390
321 -655 -36 -176 -145 -312 -321 -401 -225 -115 -457 -163 -890 -188 -76 -4
-470 -6 -545 -2 l-35 2 -3 704 c-2 556 1 706 10 712 14 9 772 4 828 -5z"/>
</g>
</svg>
